<mxfile host="app.diagrams.net" modified="2023-09-26T08:58:06.096Z" agent="Mozilla/5.0 (Windows NT 10.0; Win64; x64) AppleWebKit/537.36 (KHTML, like Gecko) Chrome/117.0.0.0 Safari/537.36" etag="mTZkMEXrgxAiY-VNF4TM" version="21.8.2" type="github">
  <diagram name="Seite-1" id="1ZRnNQiE_IGoFQIbgbd3">
    <mxGraphModel dx="1000" dy="1708" grid="1" gridSize="10" guides="1" tooltips="1" connect="1" arrows="1" fold="1" page="1" pageScale="1" pageWidth="827" pageHeight="1169" math="0" shadow="0">
      <root>
        <mxCell id="0" />
        <mxCell id="1" parent="0" />
        <mxCell id="PBfECNtXFe4ZCMvhLGyD-4" style="edgeStyle=orthogonalEdgeStyle;rounded=0;orthogonalLoop=1;jettySize=auto;html=1;entryX=0.5;entryY=0;entryDx=0;entryDy=0;" edge="1" parent="1" source="PBfECNtXFe4ZCMvhLGyD-1" target="PBfECNtXFe4ZCMvhLGyD-3">
          <mxGeometry relative="1" as="geometry" />
        </mxCell>
        <mxCell id="PBfECNtXFe4ZCMvhLGyD-1" value="start" style="ellipse;whiteSpace=wrap;html=1;" vertex="1" parent="1">
          <mxGeometry x="310" y="-760" width="120" height="80" as="geometry" />
        </mxCell>
        <mxCell id="PBfECNtXFe4ZCMvhLGyD-9" style="edgeStyle=orthogonalEdgeStyle;rounded=0;orthogonalLoop=1;jettySize=auto;html=1;exitX=0.5;exitY=1;exitDx=0;exitDy=0;" edge="1" parent="1" source="PBfECNtXFe4ZCMvhLGyD-2" target="PBfECNtXFe4ZCMvhLGyD-7">
          <mxGeometry relative="1" as="geometry" />
        </mxCell>
        <mxCell id="PBfECNtXFe4ZCMvhLGyD-2" value="User Input" style="shape=parallelogram;perimeter=parallelogramPerimeter;whiteSpace=wrap;html=1;fixedSize=1;" vertex="1" parent="1">
          <mxGeometry x="310" y="-520" width="120" height="60" as="geometry" />
        </mxCell>
        <mxCell id="PBfECNtXFe4ZCMvhLGyD-5" style="edgeStyle=orthogonalEdgeStyle;rounded=0;orthogonalLoop=1;jettySize=auto;html=1;exitX=0.5;exitY=1;exitDx=0;exitDy=0;entryX=0.5;entryY=0;entryDx=0;entryDy=0;" edge="1" parent="1" source="PBfECNtXFe4ZCMvhLGyD-3" target="PBfECNtXFe4ZCMvhLGyD-2">
          <mxGeometry relative="1" as="geometry" />
        </mxCell>
        <mxCell id="PBfECNtXFe4ZCMvhLGyD-3" value="Computer generiert Zufallsnummer in dem Fall = 4" style="rounded=1;whiteSpace=wrap;html=1;" vertex="1" parent="1">
          <mxGeometry x="310" y="-630" width="120" height="60" as="geometry" />
        </mxCell>
        <mxCell id="PBfECNtXFe4ZCMvhLGyD-11" style="edgeStyle=orthogonalEdgeStyle;rounded=0;orthogonalLoop=1;jettySize=auto;html=1;exitX=0.5;exitY=1;exitDx=0;exitDy=0;entryX=0.5;entryY=0;entryDx=0;entryDy=0;" edge="1" parent="1" source="PBfECNtXFe4ZCMvhLGyD-6" target="PBfECNtXFe4ZCMvhLGyD-8">
          <mxGeometry relative="1" as="geometry" />
        </mxCell>
        <mxCell id="PBfECNtXFe4ZCMvhLGyD-6" value="output" style="shape=parallelogram;perimeter=parallelogramPerimeter;whiteSpace=wrap;html=1;fixedSize=1;" vertex="1" parent="1">
          <mxGeometry x="294" y="-320" width="120" height="60" as="geometry" />
        </mxCell>
        <mxCell id="PBfECNtXFe4ZCMvhLGyD-13" style="edgeStyle=orthogonalEdgeStyle;rounded=0;orthogonalLoop=1;jettySize=auto;html=1;exitX=1;exitY=0.5;exitDx=0;exitDy=0;entryX=0;entryY=0.5;entryDx=0;entryDy=0;" edge="1" parent="1" source="PBfECNtXFe4ZCMvhLGyD-7">
          <mxGeometry relative="1" as="geometry">
            <mxPoint x="480" y="-390" as="targetPoint" />
          </mxGeometry>
        </mxCell>
        <mxCell id="PBfECNtXFe4ZCMvhLGyD-7" value="if number &amp;lt; 4&amp;nbsp;" style="rounded=1;whiteSpace=wrap;html=1;" vertex="1" parent="1">
          <mxGeometry x="310" y="-420" width="120" height="60" as="geometry" />
        </mxCell>
        <mxCell id="PBfECNtXFe4ZCMvhLGyD-31" style="edgeStyle=orthogonalEdgeStyle;rounded=0;orthogonalLoop=1;jettySize=auto;html=1;exitX=0.5;exitY=1;exitDx=0;exitDy=0;" edge="1" parent="1" source="PBfECNtXFe4ZCMvhLGyD-8" target="PBfECNtXFe4ZCMvhLGyD-29">
          <mxGeometry relative="1" as="geometry" />
        </mxCell>
        <mxCell id="PBfECNtXFe4ZCMvhLGyD-8" value="your number is too small" style="rounded=1;whiteSpace=wrap;html=1;" vertex="1" parent="1">
          <mxGeometry x="290" y="-240" width="120" height="60" as="geometry" />
        </mxCell>
        <mxCell id="PBfECNtXFe4ZCMvhLGyD-10" style="edgeStyle=orthogonalEdgeStyle;rounded=0;orthogonalLoop=1;jettySize=auto;html=1;exitX=0.5;exitY=1;exitDx=0;exitDy=0;entryX=0.667;entryY=-0.01;entryDx=0;entryDy=0;entryPerimeter=0;" edge="1" parent="1" source="PBfECNtXFe4ZCMvhLGyD-7" target="PBfECNtXFe4ZCMvhLGyD-6">
          <mxGeometry relative="1" as="geometry" />
        </mxCell>
        <mxCell id="PBfECNtXFe4ZCMvhLGyD-16" style="edgeStyle=orthogonalEdgeStyle;rounded=0;orthogonalLoop=1;jettySize=auto;html=1;exitX=1;exitY=1;exitDx=0;exitDy=0;entryX=0.5;entryY=0;entryDx=0;entryDy=0;" edge="1" parent="1" source="PBfECNtXFe4ZCMvhLGyD-14" target="PBfECNtXFe4ZCMvhLGyD-15">
          <mxGeometry relative="1" as="geometry" />
        </mxCell>
        <mxCell id="PBfECNtXFe4ZCMvhLGyD-14" value="else if user Inuput = 4" style="rounded=1;whiteSpace=wrap;html=1;" vertex="1" parent="1">
          <mxGeometry x="480" y="-420" width="120" height="60" as="geometry" />
        </mxCell>
        <mxCell id="PBfECNtXFe4ZCMvhLGyD-19" style="edgeStyle=orthogonalEdgeStyle;rounded=0;orthogonalLoop=1;jettySize=auto;html=1;exitX=0.5;exitY=1;exitDx=0;exitDy=0;entryX=0.5;entryY=0;entryDx=0;entryDy=0;" edge="1" parent="1" source="PBfECNtXFe4ZCMvhLGyD-15" target="PBfECNtXFe4ZCMvhLGyD-17">
          <mxGeometry relative="1" as="geometry" />
        </mxCell>
        <mxCell id="PBfECNtXFe4ZCMvhLGyD-15" value="output" style="shape=parallelogram;perimeter=parallelogramPerimeter;whiteSpace=wrap;html=1;fixedSize=1;" vertex="1" parent="1">
          <mxGeometry x="640" y="-320" width="120" height="60" as="geometry" />
        </mxCell>
        <mxCell id="PBfECNtXFe4ZCMvhLGyD-17" value="you guessed correctly" style="rounded=1;whiteSpace=wrap;html=1;" vertex="1" parent="1">
          <mxGeometry x="640" y="-230" width="120" height="60" as="geometry" />
        </mxCell>
        <mxCell id="PBfECNtXFe4ZCMvhLGyD-24" style="edgeStyle=orthogonalEdgeStyle;rounded=0;orthogonalLoop=1;jettySize=auto;html=1;exitX=0.5;exitY=1;exitDx=0;exitDy=0;entryX=0.5;entryY=0;entryDx=0;entryDy=0;" edge="1" parent="1" source="PBfECNtXFe4ZCMvhLGyD-20" target="PBfECNtXFe4ZCMvhLGyD-22">
          <mxGeometry relative="1" as="geometry" />
        </mxCell>
        <mxCell id="PBfECNtXFe4ZCMvhLGyD-20" value="else if number &amp;gt; 4" style="rounded=1;whiteSpace=wrap;html=1;" vertex="1" parent="1">
          <mxGeometry x="460" y="-290" width="110" height="50" as="geometry" />
        </mxCell>
        <mxCell id="PBfECNtXFe4ZCMvhLGyD-27" style="edgeStyle=orthogonalEdgeStyle;rounded=0;orthogonalLoop=1;jettySize=auto;html=1;exitX=0.5;exitY=1;exitDx=0;exitDy=0;entryX=0.5;entryY=0;entryDx=0;entryDy=0;" edge="1" parent="1" source="PBfECNtXFe4ZCMvhLGyD-22" target="PBfECNtXFe4ZCMvhLGyD-25">
          <mxGeometry relative="1" as="geometry" />
        </mxCell>
        <mxCell id="PBfECNtXFe4ZCMvhLGyD-22" value="output" style="shape=parallelogram;perimeter=parallelogramPerimeter;whiteSpace=wrap;html=1;fixedSize=1;" vertex="1" parent="1">
          <mxGeometry x="460" y="-220" width="120" height="60" as="geometry" />
        </mxCell>
        <mxCell id="PBfECNtXFe4ZCMvhLGyD-30" style="edgeStyle=orthogonalEdgeStyle;rounded=0;orthogonalLoop=1;jettySize=auto;html=1;exitX=0;exitY=0.5;exitDx=0;exitDy=0;entryX=1;entryY=1;entryDx=0;entryDy=0;" edge="1" parent="1" source="PBfECNtXFe4ZCMvhLGyD-25" target="PBfECNtXFe4ZCMvhLGyD-29">
          <mxGeometry relative="1" as="geometry" />
        </mxCell>
        <mxCell id="PBfECNtXFe4ZCMvhLGyD-25" value="your number is too high" style="rounded=1;whiteSpace=wrap;html=1;" vertex="1" parent="1">
          <mxGeometry x="460" y="-120" width="120" height="60" as="geometry" />
        </mxCell>
        <mxCell id="PBfECNtXFe4ZCMvhLGyD-33" style="edgeStyle=orthogonalEdgeStyle;rounded=0;orthogonalLoop=1;jettySize=auto;html=1;" edge="1" parent="1" source="PBfECNtXFe4ZCMvhLGyD-28" target="PBfECNtXFe4ZCMvhLGyD-34">
          <mxGeometry relative="1" as="geometry">
            <mxPoint x="190" y="-490" as="targetPoint" />
          </mxGeometry>
        </mxCell>
        <mxCell id="PBfECNtXFe4ZCMvhLGyD-28" value="try again" style="rounded=1;whiteSpace=wrap;html=1;" vertex="1" parent="1">
          <mxGeometry x="40" y="-340" width="120" height="60" as="geometry" />
        </mxCell>
        <mxCell id="PBfECNtXFe4ZCMvhLGyD-32" style="edgeStyle=orthogonalEdgeStyle;rounded=0;orthogonalLoop=1;jettySize=auto;html=1;exitX=0;exitY=0.25;exitDx=0;exitDy=0;" edge="1" parent="1" source="PBfECNtXFe4ZCMvhLGyD-29" target="PBfECNtXFe4ZCMvhLGyD-28">
          <mxGeometry relative="1" as="geometry" />
        </mxCell>
        <mxCell id="PBfECNtXFe4ZCMvhLGyD-29" value="output" style="shape=parallelogram;perimeter=parallelogramPerimeter;whiteSpace=wrap;html=1;fixedSize=1;" vertex="1" parent="1">
          <mxGeometry x="70" y="-150" width="120" height="60" as="geometry" />
        </mxCell>
        <mxCell id="PBfECNtXFe4ZCMvhLGyD-35" value="" style="edgeStyle=orthogonalEdgeStyle;rounded=0;orthogonalLoop=1;jettySize=auto;html=1;" edge="1" parent="1" source="PBfECNtXFe4ZCMvhLGyD-34" target="PBfECNtXFe4ZCMvhLGyD-2">
          <mxGeometry relative="1" as="geometry" />
        </mxCell>
        <mxCell id="PBfECNtXFe4ZCMvhLGyD-34" value="" style="ellipse;whiteSpace=wrap;html=1;" vertex="1" parent="1">
          <mxGeometry x="130" y="-530" width="70" height="80" as="geometry" />
        </mxCell>
        <mxCell id="PBfECNtXFe4ZCMvhLGyD-36" value="if condition is not true try&amp;nbsp;" style="rounded=1;whiteSpace=wrap;html=1;" vertex="1" parent="1">
          <mxGeometry x="490" y="-350" width="80" height="40" as="geometry" />
        </mxCell>
        <mxCell id="PBfECNtXFe4ZCMvhLGyD-37" style="edgeStyle=orthogonalEdgeStyle;rounded=0;orthogonalLoop=1;jettySize=auto;html=1;exitX=0.5;exitY=1;exitDx=0;exitDy=0;entryX=0.623;entryY=-0.007;entryDx=0;entryDy=0;entryPerimeter=0;" edge="1" parent="1" source="PBfECNtXFe4ZCMvhLGyD-14" target="PBfECNtXFe4ZCMvhLGyD-36">
          <mxGeometry relative="1" as="geometry" />
        </mxCell>
        <mxCell id="PBfECNtXFe4ZCMvhLGyD-38" style="edgeStyle=orthogonalEdgeStyle;rounded=0;orthogonalLoop=1;jettySize=auto;html=1;exitX=0.5;exitY=1;exitDx=0;exitDy=0;entryX=0.641;entryY=0;entryDx=0;entryDy=0;entryPerimeter=0;" edge="1" parent="1" source="PBfECNtXFe4ZCMvhLGyD-36" target="PBfECNtXFe4ZCMvhLGyD-20">
          <mxGeometry relative="1" as="geometry" />
        </mxCell>
      </root>
    </mxGraphModel>
  </diagram>
</mxfile>
